<?xml version="1.0" encoding="utf-8"?>
<!-- Generator: Adobe Illustrator 23.1.0, SVG Export Plug-In . SVG Version: 6.00 Build 0)  -->
<svg version="1.1" id="图层_1" xmlns="http://www.w3.org/2000/svg" xmlns:xlink="http://www.w3.org/1999/xlink" x="0px" y="0px"
	 viewBox="0 0 1024 1024" style="enable-background:new 0 0 1024 1024;" xml:space="preserve">
<path d="M512.1,0C229.2-0.1,0,235.1,0,525.5C0,755.1,143.4,950.3,342.9,1022c26.9,7,22.7-12.7,22.7-26.1v-91
	C210.4,923.4,204.2,818,193.7,800.4c-21.1-36.9-70.9-46.3-55.9-63.9c35.3-18.6,71.4,4.7,113.2,68c30.2,46,89.1,38.2,119,30.5
	c6.6-27.6,20.5-52.3,39.7-71.5C248.8,734,181.8,633.1,181.8,513.3c0-58.2,18.6-111.6,55.3-154.7c-23.3-71.1,2.2-132,5.6-141
	c66.5-6.1,135.6,48.8,140.9,53.2c37.8-10.4,80.9-16,129.1-16c48.5,0,91.8,5.7,129.8,16.4c12.9-10.1,77-57.3,138.8-51.6
	c3.3,9,28.3,68.5,6.2,138.6c37.1,43.2,55.9,97.2,55.9,155.4c0,120.1-67.5,221.1-228.8,250.2c28,28.2,43.6,66.8,43.6,106.9V1003
	c0.9,10.5,0,21,17.2,21C878.2,953.9,1024,757.2,1024,525.6C1024,235.1,794.7,0,512.1,0L512.1,0z"/>
</svg>
